<?xml version="1.0" encoding="UTF-8" standalone="no"?>
<svg
   xmlns:dc="http://purl.org/dc/elements/1.1/"
   xmlns:cc="http://creativecommons.org/ns#"
   xmlns:rdf="http://www.w3.org/1999/02/22-rdf-syntax-ns#"
   xmlns:svg="http://www.w3.org/2000/svg"
   xmlns="http://www.w3.org/2000/svg"
   xmlns:sodipodi="http://sodipodi.sourceforge.net/DTD/sodipodi-0.dtd"
   xmlns:inkscape="http://www.inkscape.org/namespaces/inkscape"
   version="1.1"
   width="380"
   height="400"
   id="svg5222"
   inkscape:version="0.48.3.1 r9886"
   sodipodi:docname="belfast.svg">
  <sodipodi:namedview
     pagecolor="#ffffff"
     bordercolor="#666666"
     borderopacity="1"
     objecttolerance="10"
     gridtolerance="10"
     guidetolerance="10"
     inkscape:pageopacity="0"
     inkscape:pageshadow="2"
     inkscape:window-width="1308"
     inkscape:window-height="803"
     id="namedview6680"
     showgrid="false"
     inkscape:zoom="1"
     inkscape:cx="87.852918"
     inkscape:cy="189.6715"
     inkscape:window-x="249"
     inkscape:window-y="167"
     inkscape:window-maximized="0"
     inkscape:current-layer="svg5222" />
  <defs
     id="defs5224" />
  <metadata
     id="metadata5227">
    <rdf:RDF>
      <cc:Work
         rdf:about="">
        <dc:format>image/svg+xml</dc:format>
        <dc:type
           rdf:resource="http://purl.org/dc/dcmitype/StillImage" />
        <dc:title />
      </cc:Work>
    </rdf:RDF>
  </metadata>
  <g
     transform="translate(0,-652.36218)"
     id="wall"
     style="fill:none;stroke:#cd17e1;stroke-opacity:1">
    <path
       d="m 55.053314,264.63956 -2.525382,-15.65737 3.535534,-6.06091"
       transform="translate(0,652.36218)"
       id="path5358"
       style="fill:none;stroke:#cd17e1;stroke-opacity:1" />
    <path
       d="m 74.751288,221.203 9.59645,-12.62691 1.010152,-7.57614"
       transform="translate(0,652.36218)"
       id="path5360"
       style="fill:none;stroke:#cd17e1;stroke-opacity:1" />
    <path
       d="m 104.04571,178.77659 13.13199,-8.08122 8.58629,2.02031 2.02031,6.56599"
       transform="translate(0,652.36218)"
       id="path5362"
       style="fill:none;stroke:#cd17e1;stroke-opacity:1" />
    <path
       d="m 147.98735,200.49487 5.55584,-11.11168 3.03045,-14.14213 0.50508,-21.2132"
       transform="translate(0,652.36218)"
       id="path5364"
       style="fill:none;stroke:#cd17e1;stroke-opacity:1" />
    <path
       d="m 97.479721,264.63956 6.565989,-16.16244 5.55584,1.01015"
       transform="translate(0,652.36218)"
       id="path5366"
       style="fill:none;stroke:#cd17e1;stroke-opacity:1" />
    <path
       d="m 151.01781,272.2157 c 1.51522,-2.0203 2.52538,-9.09137 1.51522,-11.11168 -1.01015,-2.0203 -2.52538,-12.12183 -2.52538,-12.12183"
       transform="translate(0,652.36218)"
       id="path5368"
       style="fill:none;stroke:#cd17e1;stroke-opacity:1" />
    <path
       d="m 186.87822,226.25376 0.50508,-12.12183 5.05076,-3.53553"
       transform="translate(0,652.36218)"
       id="path5370"
       style="fill:none;stroke:#cd17e1;stroke-opacity:1" />
    <path
       d="m 213.14219,214.63701 9.09137,-11.11168 8.5863,-8.5863 10.10152,4.54569 4.04061,-5.55584"
       transform="translate(0,652.36218)"
       id="path5372"
       style="fill:none;stroke:#cd17e1;stroke-width:1px;stroke-linecap:butt;stroke-linejoin:miter;stroke-opacity:1" />
    <path
       d="m 177.78685,274.74108 6.56599,-9.59644 11.11168,-7.07107 4.54568,5.05076"
       transform="translate(0,652.36218)"
       id="path5374"
       style="fill:none;stroke:#cd17e1;stroke-width:1px;stroke-linecap:butt;stroke-linejoin:miter;stroke-opacity:1" />
    <path
       d="m 219.70818,257.56849 7.07107,-5.05076"
       transform="translate(0,652.36218)"
       id="path5376"
       style="fill:none;stroke:#cd17e1;stroke-width:1px;stroke-linecap:butt;stroke-linejoin:miter;stroke-opacity:1" />
  </g>
  <g
     id="markers"
     class="markers"
     inkscape:label="#g7255">
    <g
       transform="translate(71,-44)"
       id="marker_image_001"
       class="marker">
      <path
         style="fill:#dc0000;fill-opacity:1;stroke:none"
         d="m 47.698008,215.20843 c 0,0 -5.597477,-12.14911 -10.706252,-25.23617 -5.108776,-13.08706 32.94052,-11.9097 26.000899,0.76473 -7.435181,13.57951 -15.294647,24.47144 -15.294647,24.47144 z"
         id="path7190"
         inkscape:connector-curvature="0"
         sodipodi:nodetypes="czsc" />
      <text
         xml:space="preserve"
         style="font-size:22.90672874px;font-style:normal;font-weight:normal;line-height:125%;letter-spacing:0px;word-spacing:0px;fill:#ffffff;fill-opacity:1;stroke:none;font-family:Sans"
         x="40.720665"
         y="203.35509"
         id="text7192"
         sodipodi:linespacing="125%"><tspan
           sodipodi:role="line"
           id="tspan7194"
           x="40.720665"
           y="203.35509"
           style="font-weight:bold;-inkscape-font-specification:Sans Bold">1</tspan></text>
    </g>
    <g
       id="marker_image_002"
       transform="translate(146.53277,42.242484)"
       class="marker">
      <path
         style="fill:#dc0000;fill-opacity:1;stroke:none"
         d="m 47.698008,215.20843 c 0,0 -5.597477,-12.14911 -10.706252,-25.23617 -5.108776,-13.08706 32.94052,-11.9097 26.000899,0.76473 -7.435181,13.57951 -15.294647,24.47144 -15.294647,24.47144 z"
         id="path7190-5"
         inkscape:connector-curvature="0"
         sodipodi:nodetypes="czsc" />
      <text
         xml:space="preserve"
         style="font-size:22.90672874px;font-style:normal;font-weight:normal;line-height:125%;letter-spacing:0px;word-spacing:0px;fill:#ffffff;fill-opacity:1;stroke:none;font-family:Sans"
         x="40.720665"
         y="203.35509"
         id="text7192-4"
         sodipodi:linespacing="125%"><tspan
           sodipodi:role="line"
           id="tspan7194-8"
           x="40.720665"
           y="203.35509"
           style="font-weight:bold;-inkscape-font-specification:Sans Bold">2</tspan></text>
    </g>
    <g
       id="xxxxxxxxxxx"
       transform="translate(32.8203,51.055606)"
       class="marker">
      <path
         style="fill:#dc0000;fill-opacity:1;stroke:none"
         d="m 47.698008,215.20843 c 0,0 -5.597477,-12.14911 -10.706252,-25.23617 -5.108776,-13.08706 32.94052,-11.9097 26.000899,0.76473 -7.435181,13.57951 -15.294647,24.47144 -15.294647,24.47144 z"
         id="path7190-5-9"
         inkscape:connector-curvature="0"
         sodipodi:nodetypes="czsc" />
      <text
         xml:space="preserve"
         style="font-size:22.90672874px;font-style:normal;font-weight:normal;line-height:125%;letter-spacing:0px;word-spacing:0px;fill:#ffffff;fill-opacity:1;stroke:none;font-family:Sans"
         x="40.720665"
         y="203.35509"
         id="text7192-4-1"
         sodipodi:linespacing="125%"><tspan
           sodipodi:role="line"
           id="tspan7194-8-4"
           x="40.720665"
           y="203.35509"
           style="font-weight:bold;-inkscape-font-specification:Sans Bold">3</tspan></text>
    </g>
  </g>
</svg>
