<?xml version="1.0" encoding="UTF-8" standalone="no"?>
<!-- Created with Inkscape (http://www.inkscape.org/) -->

<svg
   xmlns:dc="http://purl.org/dc/elements/1.1/"
   xmlns:cc="http://creativecommons.org/ns#"
   xmlns:rdf="http://www.w3.org/1999/02/22-rdf-syntax-ns#"
   xmlns:svg="http://www.w3.org/2000/svg"
   xmlns="http://www.w3.org/2000/svg"
   xmlns:xlink="http://www.w3.org/1999/xlink"
   version="1.1"
   width="380"
   height="400"
   id="svg5222">
  <defs
     id="defs5224" />
  <metadata
     id="metadata5227">
    <rdf:RDF>
      <cc:Work
         rdf:about="">
        <dc:format>image/svg+xml</dc:format>
        <dc:type
           rdf:resource="http://purl.org/dc/dcmitype/StillImage" />
        <dc:title></dc:title>
      </cc:Work>
    </rdf:RDF>
  </metadata>
  <g
     transform="translate(0,-652.36218)"
     id="layer1">
    <image
       xlink:href="file:///home/andrew/work/interactive/walled-worlds/src/imgs/map_01.jpg"
       x="0.55343753"
       y="651.87231"
       width="1104"
       height="803"
       id="image5351" />
    <path
       d="m 55.053314,264.63956 -2.525382,-15.65737 3.535534,-6.06091"
       transform="translate(0,652.36218)"
       id="path5358" />
    <path
       d="m 74.751288,221.203 9.59645,-12.62691 1.010152,-7.57614"
       transform="translate(0,652.36218)"
       id="path5360"
        />
    <path
       d="m 104.04571,178.77659 13.13199,-8.08122 8.58629,2.02031 2.02031,6.56599"
       transform="translate(0,652.36218)"
       id="path5362"
        />
    <path
       d="m 147.98735,200.49487 5.55584,-11.11168 3.03045,-14.14213 0.50508,-21.2132"
       transform="translate(0,652.36218)"
       id="path5364"
        />
    <path
       d="m 97.479721,264.63956 6.565989,-16.16244 5.55584,1.01015"
       transform="translate(0,652.36218)"
       id="path5366"
        />
    <path
       d="m 151.01781,272.2157 c 1.51522,-2.0203 2.52538,-9.09137 1.51522,-11.11168 -1.01015,-2.0203 -2.52538,-12.12183 -2.52538,-12.12183"
       transform="translate(0,652.36218)"
       id="path5368"
        />
    <path
       d="m 186.87822,226.25376 0.50508,-12.12183 5.05076,-3.53553"
       transform="translate(0,652.36218)"
       id="path5370"
        />
    <path
       d="m 213.14219,214.63701 9.09137,-11.11168 8.5863,-8.5863 10.10152,4.54569 4.04061,-5.55584"
       transform="translate(0,652.36218)"
       id="path5372"
       style="fill:none;stroke:#000000;stroke-width:1px;stroke-linecap:butt;stroke-linejoin:miter;stroke-opacity:1" />
    <path
       d="m 177.78685,274.74108 6.56599,-9.59644 11.11168,-7.07107 4.54568,5.05076"
       transform="translate(0,652.36218)"
       id="path5374"
       style="fill:none;stroke:#000000;stroke-width:1px;stroke-linecap:butt;stroke-linejoin:miter;stroke-opacity:1" />
    <path
       d="m 219.70818,257.56849 7.07107,-5.05076"
       transform="translate(0,652.36218)"
       id="path5376"
       style="fill:none;stroke:#000000;stroke-width:1px;stroke-linecap:butt;stroke-linejoin:miter;stroke-opacity:1" />
  </g>
</svg>
