<?xml version="1.0" encoding="utf-8"?>
<!-- Generator: Adobe Illustrator 16.0.1, SVG Export Plug-In . SVG Version: 6.00 Build 0)  -->
<!DOCTYPE svg PUBLIC "-//W3C//DTD SVG 1.1//EN" "http://www.w3.org/Graphics/SVG/1.1/DTD/svg11.dtd">
<svg version="1.1" xmlns="http://www.w3.org/2000/svg" xmlns:xlink="http://www.w3.org/1999/xlink" x="0px" y="0px" width="380px"
	 height="940px" viewBox="0 0 380 940" enable-background="new 0 0 380 940" xml:space="preserve">
<g id="US_Border">
	<path class="wall_path" d="M0.486,34.75l29.25-2.25l71.25,24.25l47.75-2.5
		l1.5-9.625l27.25-1.125c0,0,6.5,7.5,7.75,6s6.25,6.75,7,6s13.5,8,13.5,8s4,8.75,5.25,8s4,9.25,3.5,10.5s6.25,2,6.25,3s6.75,0,7.5,0
		s6.5,6.25,8.5,4s6.25-3,6.25-4.25s1.75-11.25,3.25-11c2.02,0.336,4.521-1.914,5.25-4.25c8.25,0.25,13.75,2,13.75,2
		s6,5.25,7.25,4.25s8.25,8.5,9.75,7.5s6.5,9,6.25,10.25s6,6.75,7,5.75s5.5,6.043,9.75,6.271c0,0,4.75,9.979,3.25,10.979
		s6,8.25,7,7.25s8.25,6.75,9.25,5.75s9,14.339,10.25,13.5s27.5,12.295,28.75,11.902"/>
</g>
</svg>
